<svg width="18" height="15" color='white' viewBox="0 0 18 15" fill="none" xmlns="http://www.w3.org/2000/svg">
<path fill-rule="evenodd" clip-rule="evenodd" d="M15.5902 1.36287L13.3875 10.0333L1.49032 10.0332L0 2.03382L14.018 2.0439L14.5373 0H18V1.36287H15.5902ZM12.3346 8.67041L13.6719 3.40653L1.63336 3.39787L2.61566 8.67041H12.3346ZM13.6997 12.8205C13.6997 14.0223 12.7271 15 11.5317 15C10.3363 15 9.36374 14.0223 9.36373 12.8205C9.36373 12.5319 9.41997 12.2563 9.52179 12.004H5.37358C5.47538 12.2563 5.53163 12.5319 5.53163 12.8205C5.53163 14.0223 4.5591 15 3.36365 15C2.16822 15 1.19566 14.0223 1.19566 12.8205C1.19566 11.6188 2.16823 10.6411 3.36365 10.6411H11.5317C12.7271 10.6411 13.6997 11.6188 13.6997 12.8205ZM3.36365 13.6371C3.81155 13.6371 4.17593 13.2708 4.17593 12.8205C4.17593 12.3703 3.81155 12.004 3.36365 12.004C2.91574 12.004 2.55135 12.3703 2.55135 12.8205C2.55135 13.2708 2.91575 13.6371 3.36365 13.6371ZM11.5317 13.6371C11.9796 13.6371 12.344 13.2708 12.344 12.8205C12.344 12.3703 11.9796 12.004 11.5317 12.004C11.0838 12.004 10.7195 12.3703 10.7195 12.8205C10.7195 13.2708 11.0838 13.6371 11.5317 13.6371Z" fill="white"/>
</svg>
